<?xml version="1.0" encoding="utf-8"?>
<!-- Generator: Adobe Illustrator 24.0.1, SVG Export Plug-In . SVG Version: 6.00 Build 0)  -->
<svg version="1.1" id="Layer_1" xmlns="http://www.w3.org/2000/svg" xmlns:xlink="http://www.w3.org/1999/xlink" x="0px" y="0px"
	 viewBox="0 0 203 53" style="enable-background:new 0 0 203 53;" xml:space="preserve">
<style type="text/css">
	.st0{fill:#F05D22;}
</style>
<g>
	<g>
		<path class="st0" d="M76.77,33.69l-2.29-1.97c-0.43-0.32-0.96-0.22-1.33,0.16c-0.96,0.9-1.97,2.02-4.26,2.02
			c-2.87,0-5.16-2.4-5.16-5.43c0-2.98,2.34-5.43,5.22-5.43c1.49,0,2.82,0.75,3.67,1.7c0.37,0.32,0.85,0.59,1.33,0.16l2.45-2.34
			c0.53-0.37,0.64-1.01,0.27-1.49c-2.02-2.45-4.58-3.78-7.88-3.78c-5.96,0-11.34,4.9-11.34,11.18c0,6.39,5.27,11.18,11.29,11.18
			c3.78,0,6.6-1.65,8.41-4.47C77.51,34.65,77.3,34.11,76.77,33.69z"/>
		<path class="st0" d="M89.64,17.29c-6.34,0-10.86,5.16-10.86,11.18c0,6.12,4.53,11.18,10.92,11.18c3.46,0,6.18-1.28,7.93-2.93
			c0.53-0.43,0.43-1.01,0.05-1.38l-2.18-2.5c-0.37-0.43-0.85-0.32-1.39,0c-0.96,0.69-2.5,1.33-4.15,1.33
			c-3.09,0-4.95-2.45-5.11-4.63h13.63c0.48,0,0.96-0.37,1.01-0.91c0.05-0.37,0.11-1.06,0.11-1.44
			C99.6,21.44,95.13,17.29,89.64,17.29z M85.33,25.81c0.27-2.02,2.02-3.62,4.15-3.62c2.02,0,3.73,1.65,3.89,3.62
			C93.37,25.81,85.33,25.81,85.33,25.81z"/>
		<path class="st0" d="M109.02,5.73h-6.87c-0.53,0-1.01,0.48-1.01,1.01v2.77c0,0.53,0.48,1.01,1.01,1.01h1.38v27.59
			c0,0.53,0.48,1.01,1.01,1.01h4.47c0.53,0,1.01-0.48,1.01-1.01V6.74C110.03,6.21,109.55,5.73,109.02,5.73z"/>
		<path class="st0" d="M124.56,17.29c-6.34,0-10.86,5.16-10.86,11.18c0,6.12,4.53,11.18,10.92,11.18c3.46,0,6.18-1.28,7.93-2.93
			c0.53-0.43,0.43-1.01,0.05-1.38l-2.18-2.5c-0.37-0.43-0.85-0.32-1.38,0c-0.96,0.69-2.5,1.33-4.15,1.33
			c-3.09,0-4.95-2.45-5.11-4.63h13.63c0.48,0,0.96-0.37,1.01-0.91c0.05-0.37,0.11-1.06,0.11-1.44
			C134.51,21.44,130.04,17.29,124.56,17.29z M120.24,25.81c0.27-2.02,2.02-3.62,4.15-3.62c2.02,0,3.73,1.65,3.89,3.62
			C128.28,25.81,120.24,25.81,120.24,25.81z"/>
		<path class="st0" d="M150.31,17.29c-3.3,0-5.27,2.24-6.02,3.3l-0.74-2.08c-0.16-0.43-0.48-0.69-0.96-0.69h-4.4
			c-0.53,0-1.01,0.48-1.01,1.01v2.77c0,0.53,0.48,1.01,1.01,1.01h1.36v15.5c0,0.53,0.48,1.01,1.01,1.01h4.1
			c0.75,0,1.22-0.27,1.22-1.01V25.22c0.37-0.75,1.65-2.18,3.78-2.18c0.59,0,1.39,0.27,1.54,0.32c0.43,0.21,0.96,0,1.22-0.48
			l1.97-3.46C155.05,18.09,152.81,17.29,150.31,17.29z"/>
		<path class="st0" d="M163.7,17.82h-6.83c-0.53,0-1.01,0.48-1.01,1.01v2.77c0,0.53,0.48,1.01,1.01,1.01h1.38l0.02-0.04v15.54
			c0,0.53,0.48,1.01,1.01,1.01h4.42c0.53,0,1.01-0.48,1.01-1.01V18.83C164.72,18.25,164.24,17.82,163.7,17.82z"/>
		<path class="st0" d="M161.41,6.79c-2.02,0-3.62,1.65-3.62,3.67s1.6,3.67,3.62,3.67c2.08,0,3.73-1.65,3.73-3.67
			S163.49,6.79,161.41,6.79z"/>
		<path class="st0" d="M193.42,37.63l-9.48-10.17l7.93-8.09c0.53-0.59,0.21-1.55-0.69-1.55h-4.84c-0.59,0-0.96,0.32-1.33,0.64
			l-7.35,7.45V6.74c0-0.53-0.48-1.01-1.01-1.01h-6.9c-0.53,0-1.01,0.48-1.01,1.01v2.77c0,0.53,0.48,1.01,1.01,1.01h1.36v27.59
			c0,0.53,0.48,1.01,1.01,1.01h4.53c0.53,0,1.01-0.48,1.01-1.01v-9l8.41,9.58c0.16,0.21,0.59,0.43,0.9,0.43h5.75
			C193.63,39.12,193.95,38.21,193.42,37.63z"/>
	</g>
	<path class="st0" d="M52.25,37.61l-4.87-4.19c-0.91-0.68-2.04-0.46-2.83,0.34c-2.04,1.93-4.19,4.31-9.07,4.31
		c0,0-1.28-0.14-2.18,0.76c-0.9,0.89-6.21,6.2-7.42,7.41c-1.61,1.6,0.38,2.37,0.38,2.37c2.78,1.1,5.78,1.7,8.89,1.7
		c8.05,0,14.05-3.51,17.91-9.52C53.83,39.65,53.38,38.51,52.25,37.61z"/>
	<g>
		<path class="st0" d="M11.44,30.5C11.44,30.5,11.42,30.36,11.44,30.5L11.44,30.5z"/>
		<path class="st0" d="M52.02,10.75c-4.3-5.22-9.75-8.05-16.77-8.05c-12.69,0-24.14,10.43-24.14,23.8c0,1.32,0.13,2.75,0.34,4
			c0.13,0.91,0.37,3.59-0.95,4.91L10,35.9c-0.89,0.88-0.89,2.3-0.02,3.19c0.44,0.45,1.02,0.67,1.6,0.67c0.57,0,1.15-0.22,1.59-0.65
			l4.32-4.26c0.88-0.88,2.31-0.87,3.19,0.02c0.88,0.88,0.87,2.31-0.02,3.19l-8,7.94c-0.89,0.88-0.89,2.3-0.02,3.19
			c0.44,0.45,1.02,0.67,1.6,0.67c0.57,0,1.15-0.22,1.59-0.65L29.17,36l0,0l4.48-4.44c0.89-0.88,0.89-2.3,0.02-3.19
			c-0.88-0.88-2.3-0.89-3.19-0.02c0,0-0.9,1.01-2.45,2.42c-1.87,1.7-3.06-0.74-3.23-1.49c-0.2-0.89-0.32-1.83-0.32-2.79
			c0-6.35,4.99-11.56,11.11-11.56c3.17,0,6.01,1.59,7.82,3.63c0.8,0.68,1.81,1.24,2.83,0.34l5.21-4.98
			C52.59,13.13,52.81,11.77,52.02,10.75z"/>
	</g>
</g>
</svg>
